<?xml version="1.0" encoding="UTF-8" standalone="no"?>
<!-- Created with Inkscape (http://www.inkscape.org/) -->

<svg
   xmlns:dc="http://purl.org/dc/elements/1.1/"
   xmlns:cc="http://creativecommons.org/ns#"
   xmlns:rdf="http://www.w3.org/1999/02/22-rdf-syntax-ns#"
   xmlns:svg="http://www.w3.org/2000/svg"
   xmlns="http://www.w3.org/2000/svg"
   xmlns:sodipodi="http://sodipodi.sourceforge.net/DTD/sodipodi-0.dtd"
   xmlns:inkscape="http://www.inkscape.org/namespaces/inkscape"
   width="200"
   height="200"
   viewBox="0 0 52.916665 52.916668"
   version="1.1"
   id="svg8"
   inkscape:version="0.92.2 (5c3e80d, 2017-08-06)"
   sodipodi:docname="icon.svg">
  <defs
     id="defs2">
    <inkscape:path-effect
       effect="bend_path"
       id="path-effect4631"
       is_visible="true"
       bendpath="m 112.29359,265.59611 c -1.10581,-27.87 -42.515992,-29.52483 -42.515992,0.43793 0.947589,28.43129 42.515992,28.17009 42.515992,-0.43793"
       prop_scale="0.77157358"
       scale_y_rel="false"
       vertical="false"
       bendpath-nodetypes="ccc" />
    <inkscape:path-effect
       effect="ruler"
       id="path-effect4628"
       is_visible="true"
       unit="px"
       mark_distance="2.53"
       mark_length="9"
       minor_mark_length="4"
       major_mark_steps="5"
       shift="0"
       offset="0"
       mark_dir="left"
       border_marks="both" />
  </defs>
  <sodipodi:namedview
     id="base"
     pagecolor="#ffffff"
     bordercolor="#666666"
     borderopacity="1.0"
     inkscape:pageopacity="0.0"
     inkscape:pageshadow="2"
     inkscape:zoom="0.80295965"
     inkscape:cx="339.05559"
     inkscape:cy="290.49924"
     inkscape:document-units="mm"
     inkscape:current-layer="layer1"
     showgrid="false"
     inkscape:window-width="1299"
     inkscape:window-height="713"
     inkscape:window-x="67"
     inkscape:window-y="27"
     inkscape:window-maximized="1"
     units="px" />
  <metadata
     id="metadata5">
    <rdf:RDF>
      <cc:Work
         rdf:about="">
        <dc:format>image/svg+xml</dc:format>
        <dc:type
           rdf:resource="http://purl.org/dc/dcmitype/StillImage" />
        <dc:title></dc:title>
      </cc:Work>
    </rdf:RDF>
  </metadata>
  <g
     inkscape:label="Camada 1"
     inkscape:groupmode="layer"
     id="layer1"
     transform="translate(0,-244.08332)">
    <g
       id="g4682"
       transform="translate(-0.49596087,-0.46157896)">
      <ellipse
         style="fill:#ff0000;stroke:none;stroke-width:0.12909396;stroke-opacity:1"
         ry="20.01753"
         rx="24.95336"
         cy="275.37085"
         cx="26.954294"
         id="path3699" />
      <path
         sodipodi:nodetypes="ccc"
         inkscape:connector-curvature="0"
         id="path3718-6"
         d="M 45.509747,261.7819 C 23.612425,262.15492 8.9469913,268.33557 2.6021196,277.77638 -1.6913973,266.9161 17.848682,244.75275 45.509747,261.7819 Z"
         style="fill:#ff2d2d;fill-opacity:1;stroke:none;stroke-width:0.13471876px;stroke-linecap:butt;stroke-linejoin:miter;stroke-opacity:1" />
      <path
         transform="matrix(0.9648418,-0.26283133,0.21869889,0.97579239,0,0)"
         sodipodi:open="true"
         d="m -50.942422,269.11047 a 15.038997,8.4453669 0 0 1 1.727886,-11.73952 15.038997,8.4453669 0 0 1 20.944378,0.64978 15.038997,8.4453669 0 0 1 -0.58543,11.77497 15.038997,8.4453669 0 0 1 -20.976312,-0.007"
         sodipodi:end="2.3431918"
         sodipodi:start="2.4522996"
         sodipodi:ry="8.4453669"
         sodipodi:rx="15.038997"
         sodipodi:cy="263.73929"
         sodipodi:cx="-39.336891"
         sodipodi:type="arc"
         id="path4540"
         style="fill:#ff5656;fill-opacity:1;stroke:none;stroke-width:0.27908075" />
      <g
         transform="matrix(0.4248238,0,0,0.4248238,-16.991104,178.12111)"
         id="g4646">
        <ellipse
           style="fill:#ececec;fill-opacity:1;stroke:#000000;stroke-width:2.51009846;stroke-miterlimit:4;stroke-dasharray:none;stroke-opacity:1"
           id="path4624"
           transform="matrix(0.94638864,0.32303026,-0.32823927,0.94459461,0,0)"
           cx="173.0545"
           cy="184.31897"
           rx="27.553848"
           ry="27.360287" />
        <path
           style="fill:#ececec;stroke:#000000;stroke-width:0.26458332px;stroke-linecap:butt;stroke-linejoin:miter;stroke-opacity:1"
           d="m 115.76294,265.45846 c -0.23871,-6.81206 -3.04435,-13.58969 -8.26614,-18.3547 -4.64908,-4.11925 -10.700136,-6.36617 -16.825546,-6.44769 -6.053892,-0.11157 -12.163026,1.99568 -16.769303,6.2061 -10e-7,0 -10e-7,1e-5 -2e-6,1e-5 -5.305002,5.12875 -7.674195,12.32906 -7.595469,19.22969 0.18009,6.8274 2.916206,13.70897 8.227567,18.50415 4.706464,4.06937 10.805998,6.14832 16.885753,6.08076 3e-6,0 6e-6,0 8e-6,0 6.056087,-0.0294 12.112402,-2.20824 16.716252,-6.39129 2.40769,-2.22432 4.30151,-4.94449 5.56694,-7.93731 1.44972,-3.47214 2.07773,-7.15475 2.06267,-10.75207 m -0.003,-0.13765 -6.9387,0.2753 m 6.6955,-3.07479 -3.06384,0.43092 m 2.53251,-3.19576 -3.00524,0.73652 m 2.18812,-3.43598 -2.90807,1.03919 m 1.8075,-3.64253 -2.77232,1.33893 m 1.39065,-3.8154 -5.84551,3.68037 m 4.18507,-5.99924 -2.38511,1.92958 m 0.44826,-4.06009 -2.13364,2.22049 m -0.059,-4.084 -1.84951,2.46504 m -0.52645,-4.04226 -1.55526,2.66052 m -0.97095,-3.95854 -2.818993,6.3431 m 0.171888,-7.35546 -0.942383,2.94096 m -1.796268,-3.66117 -0.623745,3.02592 m -2.177088,-3.44749 -0.296975,3.07404 m -2.539466,-3.1936 0.04014,3.08828 m -2.885003,-2.89751 0.866389,6.90641 m -3.674441,-6.39107 0.726618,3.00541 m -3.46172,-2.16818 1.064809,2.89595 m -3.690824,-1.73953 1.399634,2.74115 m -3.880423,-1.26821 1.731092,2.54102 m -4.03052,-0.75424 4.633168,5.16494 m -6.650627,-3.0368 2.338983,1.96554 m -4.042862,0.36599 2.571933,1.63522 m -3.973384,0.8551 2.762078,1.3137 m -3.868119,1.30128 2.909414,1.00099 m -3.727067,1.70454 6.781378,1.56844 m -7.317661,1.19353 3.075671,0.40198 m -3.337603,2.3823 3.094589,0.1157 m -3.070063,2.67438 3.084911,-0.17589 m -2.751039,2.97357 3.054528,-0.48613 m -2.432208,3.24357 6.711006,-1.79267 m -5.799938,4.47683 2.869331,-1.10772 m -1.66922,3.68554 2.714514,-1.41908 m -1.225063,3.85749 2.518219,-1.73081 m -0.73913,3.99676 2.280445,-2.0429 m -0.210722,4.09535 4.500761,-5.2837 m -2.190686,7.00627 1.691915,-2.57138 m 0.784986,4.00143 1.379078,-2.75449 m 1.232797,3.8885 1.061826,-2.89764 m 1.653173,3.73207 0.740157,-3.00081 m 2.046112,3.53217 0.931664,-6.89405 m 1.894023,7.1188 0.08357,-3.08727 m 2.751572,3.01341 -0.250561,-3.08075 m 3.063887,2.70059 -0.58156,-3.03782 m 3.339389,2.34865 -0.908398,-2.95323 m 3.577528,1.95836 -2.769919,-6.3607 m 5.317139,5.06345 -1.54959,-2.65906 m 3.94171,1.06275 -1.86395,-2.44948 m 4.06191,0.55328 -2.16936,-2.19415 m 4.09757,0.0245 -2.43243,-1.8982 m 4.06642,-0.48891 -5.9661,-3.55443 m 7.28794,0.98479 -2.82689,-1.23877 m 3.81304,-1.45071 -2.94849,-0.89648 m 3.62752,-1.8487 -3.03157,-0.57672 m 3.42295,-2.1947 -3.07755,-0.27935"
           id="path4626"
           inkscape:connector-curvature="0"
           sodipodi:nodetypes="cccccccccccccccccccccccccccccccccccccccccccccccccccccccccccccccccccccccccccccccccccccccccccccccccccccccccccccccc"
           inkscape:path-effect="#path-effect4631"
           inkscape:original-d="M 63.682702,286.99272 H 202.87489 m -139.192188,0 v -9 m 2.53,9 v -4 m 2.53,4 v -4 m 2.53,4 v -4 m 2.53,4 v -4 m 2.53,4 v -9 m 2.53,9 v -4 m 2.53,4 v -4 m 2.53,4 v -4 m 2.53,4 v -4 m 2.53,4 v -9 m 2.53,9 v -4 m 2.53,4 v -4 m 2.53,4 v -4 m 2.53,4 v -4 m 2.529998,4 v -9 m 2.53,9 v -4 m 2.53,4 v -4 m 2.53,4 v -4 m 2.53,4 v -4 m 2.53,4 v -9 m 2.53,9 v -4 m 2.53,4 v -4 m 2.53,4 v -4 m 2.53,4 v -4 m 2.53,4 v -9 m 2.53,9 v -4 m 2.53,4 v -4 m 2.53,4 v -4 m 2.53,4 v -4 m 2.53,4 v -9 m 2.53,9 v -4 m 2.53,4 v -4 m 2.53,4 v -4 m 2.53,4 v -4 m 2.53,4 v -9 m 2.53,9 v -4 m 2.53,4 v -4 m 2.53,4 v -4 m 2.53,4 v -4 m 2.53,4 v -9 m 2.53,9 v -4 m 2.53,4 v -4 m 2.53,4 v -4 m 2.53,4 v -4 m 2.53,4 v -9 m 2.53,9 v -4 m 2.53,4 v -4 m 2.53,4 v -4 m 2.53,4 v -4 m 2.53,4 v -9 m 2.53,9 v -4 m 2.53,4 v -4 m 2.53,4 v -4 m 2.53,4 v -4"
           transform="matrix(1.1187276,0.14692075,-0.14824117,1.1087629,40.829167,-77.63479)" />
        <ellipse
           style="fill:#ffffff;fill-opacity:0.55186726;stroke:none;stroke-width:2.38297415;stroke-miterlimit:4;stroke-dasharray:none;stroke-opacity:1"
           id="path4633"
           cx="-21.342936"
           cy="234.21561"
           rx="19.077799"
           ry="7.3386087"
           transform="rotate(-28.97756)" />
        <path
           style="fill:#980000;fill-opacity:1;stroke:none;stroke-width:0.45732895px;stroke-linecap:butt;stroke-linejoin:miter;stroke-opacity:1"
           d="m 102.35972,229.68406 2.81107,2.16779 13.13382,-23.18187 z"
           id="path4635"
           inkscape:connector-curvature="0"
           sodipodi:nodetypes="cccc" />
        <circle
           style="fill:#888888;fill-opacity:1;stroke:none;stroke-width:2.73972225;stroke-miterlimit:4;stroke-dasharray:none;stroke-opacity:1"
           id="path4639"
           cx="102.92908"
           cy="231.11243"
           r="2.7553909" />
      </g>
      <path
         sodipodi:nodetypes="cccccccccccc"
         inkscape:connector-curvature="0"
         id="path3701-7"
         d="m 24.445034,255.35464 c -8.983841,2.10096 -13.140348,4.4268 -15.723042,6.85837 2.898445,-0.17207 -0.7817504,1.57217 10.474939,-2.0825 -2.234863,2.92027 -2.08424,4.88636 -2.649209,7.13867 3.683795,-1.46216 6.451729,-3.53489 7.967405,-6.44248 -0.203267,2.71747 0.901631,4.99888 2.865522,6.99395 2.293886,-1.97882 3.557374,-4.47285 3.682061,-7.53627 1.138684,2.99662 4.292575,4.55379 7.939982,5.75846 -0.346503,-2.00713 -0.169,-3.88326 -3.278363,-6.5811 3.219222,1.79431 8.003791,3.06684 12.200939,4.53517 -5.065859,-2.86505 -6.853619,-7.13682 -19.848422,-8.50669 -0.538878,-0.80832 -2.907556,-5.57793 -3.631812,-0.13558 z"
         style="fill:#8e8e8e;fill-opacity:1;stroke:none;stroke-width:0.13471876px;stroke-linecap:butt;stroke-linejoin:miter;stroke-opacity:1" />
      <path
         sodipodi:nodetypes="ccccccccccccc"
         inkscape:connector-curvature="0"
         id="path3701-5"
         d="m 24.175603,254.81576 c -8.983843,2.10096 -13.140352,4.42681 -15.7230415,6.85836 2.8984435,-0.17205 -0.7817539,1.57217 10.4749365,-2.08249 -2.234863,2.92027 -2.08424,4.88636 -2.649208,7.13867 3.683798,-1.46216 6.451729,-3.5349 7.967406,-6.44247 -0.203267,2.71746 0.901624,4.99887 2.865519,6.99394 2.293882,-1.97882 3.557374,-4.47284 3.682056,-7.53627 1.138689,2.99661 4.292574,4.55379 7.939982,5.75846 -0.346498,-2.00712 -0.168995,-3.88325 -3.278358,-6.5811 3.219222,1.79431 8.003788,3.06684 12.200945,4.53517 -5.065868,-2.86505 -6.853627,-7.13681 -19.848432,-8.50669 -2.021332,-7.24248 2.006147,-6.04252 4.062291,-7.63723 -7.180879,-1.73834 -7.375058,2.04884 -7.694096,7.50165 z"
         style="fill:#008000;stroke:none;stroke-width:0.13471876px;stroke-linecap:butt;stroke-linejoin:miter;stroke-opacity:1" />
      <path
         sodipodi:nodetypes="ccccccccccccc"
         inkscape:connector-curvature="0"
         id="path3701"
         d="m 23.906159,254.54632 c -8.983841,2.10096 -13.140349,4.4268 -15.7230428,6.85837 2.8984448,-0.17207 -0.7817507,1.57217 10.4749388,-2.0825 -2.234863,2.92028 -2.08424,4.88636 -2.649209,7.13868 3.683795,-1.46217 6.451729,-3.5349 7.967407,-6.44248 -0.203268,2.71746 0.901624,4.99887 2.865517,6.99395 2.293887,-1.97883 3.557375,-4.47286 3.682061,-7.53629 1.138685,2.99662 4.292576,4.5538 7.939982,5.75848 -0.346502,-2.00714 -0.168999,-3.88327 -3.278363,-6.58111 3.219223,1.79431 8.003789,3.06684 12.200946,4.53518 -5.065868,-2.86506 -6.85362,-7.13683 -19.848428,-8.5067 -2.021336,-7.24247 2.006143,-6.04252 4.062286,-7.63723 -7.180877,-1.73835 -7.375058,2.04884 -7.694095,7.50165 z"
         style="fill:#00ff00;stroke:none;stroke-width:0.13471876px;stroke-linecap:butt;stroke-linejoin:miter;stroke-opacity:1" />
      <path
         sodipodi:nodetypes="ccc"
         inkscape:connector-curvature="0"
         id="path3718"
         d="m 13.488818,292.30202 c 21.757305,2.50032 30.571146,-5.03054 38.098706,-13.55827 -0.710704,8.02014 -16.405276,22.88794 -38.098706,13.55827 z"
         style="fill:#d40000;fill-opacity:1;stroke:none;stroke-width:0.13471876px;stroke-linecap:butt;stroke-linejoin:miter;stroke-opacity:1" />
      <path
         sodipodi:nodetypes="ccc"
         inkscape:connector-curvature="0"
         id="path4572"
         d="m 8.1831162,261.40469 c 6.5790998,-3.27771 9.1965418,-4.64846 15.7230428,-6.85837 -11.860672,2.48187 -14.2474031,6.00312 -15.7230428,6.85837 z"
         style="fill:#b5ffb5;fill-opacity:1;stroke:none;stroke-width:0.13471876px;stroke-linecap:butt;stroke-linejoin:miter;stroke-opacity:1" />
      <path
         sodipodi:nodetypes="ccc"
         inkscape:connector-curvature="0"
         id="path4572-3"
         d="m 23.906159,254.54632 c 0.866031,-6.75188 1.939628,-6.68141 7.694095,-7.50165 -9.930581,-2.22756 -7.694095,7.50165 -7.694095,7.50165 z"
         style="fill:#b5ffb5;fill-opacity:1;stroke:none;stroke-width:0.13471876px;stroke-linecap:butt;stroke-linejoin:miter;stroke-opacity:1" />
    </g>
  </g>
</svg>
